<?xml version="1.0" encoding="utf-8"?>
<!-- Generator: Adobe Illustrator 19.0.0, SVG Export Plug-In . SVG Version: 6.00 Build 0)  -->
<svg version="1.1" id="Layer_1" xmlns="http://www.w3.org/2000/svg" xmlns:xlink="http://www.w3.org/1999/xlink" x="0px" y="0px"
	 viewBox="0 0 500 500" style="enable-background:new 0 0 500 500;" xml:space="preserve">
<style type="text/css">
	.st0{fill:#333333;}
</style>
<path id="XMLID_11_" d="M286,368.4h-68.3c-6.6,0-12-5.4-12-12V105.3c0-6.6,5.4-12,12-12H286c6.6,0,12,5.4,12,12v251.1
	C298,363,292.6,368.4,286,368.4z"/>
<path id="XMLID_12_" class="st0" d="M111.7,416.1v-60.2c0-8.8,7.2-16,16-16c56.8,0,113.5,0,170.3,0c0,5.3,0,10.7,0,16
	c0,25.1,0,50.2,0,75.4c-92,2-159.2,2.3-170.3,0.9c-2.2-0.3-8.2-1.1-12.2-5.6C112.7,423.2,111.9,419.2,111.7,416.1z"/>
<path id="XMLID_13_" class="st0" d="M115.7,145.9V77.7c0-6.6,5.4-12,12-12h249.3c6.6,0,12,5.4,12,12v68.3c0,6.6-5.4,12-12,12H127.7
	C121.1,157.9,115.7,152.5,115.7,145.9z"/>
<path id="XMLID_14_" d="M298.2,339.6c-0.1,28.7-0.1,57.4-0.2,86.1c0,1.9,0,3.7,0,5.6c-1.4-1.4-2.9-2.8-4.3-4.3
	c-29.4-29.1-58.8-58.3-88.2-87.4C236.4,339.6,267.3,339.6,298.2,339.6z"/>
</svg>
